<svg xmlns="http://www.w3.org/2000/svg" viewBox="0 0 48 48">
  <path fill="#5059C9" d="M44,22v8c0,3.314-2.686,6-6,6s-6-2.686-6-6V20h10C43.105,20,44,20.895,44,22z M38,16 c2.209,0,4-1.791,4-4s-1.791-4-4-4s-4,1.791-4,4S35.791,16,38,16z"/>
  <path fill="#7B83EB" d="M35,22v11c0,5.523-4.477,10-10,10s-10-4.477-10-10V20h18C34.105,20,35,20.895,35,22z M25,17 c3.314,0,6-2.686,6-6s-2.686-6-6-6s-6,2.686-6,6S21.686,17,25,17z"/>
  <path fill="#7B83EB" d="M25,17c3.314,0,6-2.686,6-6s-2.686-6-6-6s-6,2.686-6,6S21.686,17,25,17z"/>
  <path fill="#fff" opacity=".1" d="M35,22v11c0,5.523-4.477,10-10,10s-10-4.477-10-10V20h18 C34.105,20,35,20.895,35,22z"/>
  <path fill="#5059C9" d="M24,20v17c0,0.552-0.448,1-1,1H6c-0.552,0-1-0.448-1-1V20c0-0.552,0.448-1,1-1h17 C23.552,19,24,19.448,24,20z"/>
  <path fill="#fff" d="M17.666,23.333H14.5V32h-2v-8.667h-3.166v-1.666h8.332V23.333z"/>
</svg>
