<svg width="24" height="22" viewBox="0 0 24 22" fill="none" xmlns="http://www.w3.org/2000/svg">
    <path
        d="M18.6308 11.605C17.2627 11.605 15.9506 12.1485 14.9832 13.1159C14.0158 14.0833 13.4723 15.3954 13.4723 16.7635C13.4723 18.1316 14.0158 19.4437 14.9832 20.4111C15.9506 21.3785 17.2627 21.922 18.6308 21.922C19.9989 21.922 21.311 21.3785 22.2784 20.4111C23.2458 19.4437 23.7893 18.1316 23.7893 16.7635C23.7893 15.3954 23.2458 14.0833 22.2784 13.1159C21.311 12.1485 19.9989 11.605 18.6308 11.605ZM5.22982 11.606C4.54648 11.5965 3.86807 11.7229 3.23399 11.9778C2.59991 12.2327 2.02281 12.6111 1.53622 13.0909C1.04963 13.5708 0.663252 14.1426 0.399529 14.773C0.135807 15.4035 0 16.0801 0 16.7635C0 17.4469 0.135807 18.1235 0.399529 18.754C0.663252 19.3844 1.04963 19.9562 1.53622 20.4361C2.02281 20.9159 2.59991 21.2943 3.23399 21.5492C3.86807 21.8041 4.54648 21.9305 5.22982 21.921C6.58523 21.9021 7.87874 21.3504 8.83056 20.3853C9.78238 19.4201 10.316 18.119 10.316 16.7635C10.316 15.408 9.78238 14.1069 8.83056 13.1417C7.87874 12.1766 6.58523 11.6249 5.22982 11.606ZM17.0878 5.158C17.0878 6.52599 16.5444 7.83794 15.5771 8.80526C14.6098 9.77257 13.2978 10.316 11.9298 10.316C10.5618 10.316 9.24987 9.77257 8.28256 8.80526C7.31525 7.83794 6.77182 6.52599 6.77182 5.158C6.77182 3.79001 7.31525 2.47806 8.28256 1.51074C9.24987 0.543431 10.5618 0 11.9298 0C13.2978 0 14.6098 0.543431 15.5771 1.51074C16.5444 2.47806 17.0878 3.79001 17.0878 5.158Z"
        fill="#FF584A" />
</svg>