<svg width="433" height="236" viewBox="0 0 433 236" fill="none" xmlns="http://www.w3.org/2000/svg">
<path d="M196.871 158.385C198.371 157.485 200.171 157.085 201.971 157.085C203.371 157.085 204.771 157.385 205.971 157.985C207.271 158.585 208.371 159.485 209.271 160.485L212.571 157.185C211.271 155.585 209.671 154.385 207.871 153.585C205.671 152.685 203.371 152.285 200.971 152.385C198.571 152.485 196.271 153.185 194.271 154.285C192.071 155.585 190.271 157.385 188.971 159.685C187.671 162.085 187.071 164.685 187.071 167.385C187.071 170.085 187.671 172.685 188.971 175.085C190.171 177.285 191.971 179.185 194.171 180.485C196.471 181.785 199.071 182.485 201.671 182.385C203.771 182.385 205.871 181.985 207.871 181.185C209.671 180.385 211.371 179.085 212.571 177.585L209.271 174.285C208.371 175.385 207.271 176.285 205.971 176.885C204.671 177.485 203.271 177.785 201.871 177.785C200.071 177.785 198.371 177.385 196.771 176.485C195.271 175.585 194.071 174.385 193.271 172.885C192.471 171.285 191.971 169.385 191.971 167.585C191.971 165.785 192.371 163.985 193.271 162.285C194.171 160.585 195.371 159.285 196.871 158.385ZM191.771 124.585H205.771V137.085H210.771V107.885H205.771V119.885H191.771V107.885H186.771V137.085H191.771V124.585ZM216.971 137.085H221.971V107.885H216.971V137.085ZM243.371 109.185C241.471 108.285 239.371 107.885 237.271 107.985H228.271V137.085H233.271V128.685H237.271C239.371 128.685 241.471 128.285 243.371 127.485C245.071 126.685 246.471 125.485 247.371 123.885C248.271 122.185 248.771 120.285 248.771 118.385C248.771 116.485 248.271 114.585 247.371 112.885C246.471 111.185 245.071 109.985 243.371 109.185ZM241.971 122.585C240.871 123.585 239.171 124.085 236.971 124.085H233.271V112.485H236.971C239.171 112.485 240.871 112.985 241.971 113.985C243.071 114.985 243.671 116.385 243.671 118.285C243.671 120.185 243.171 121.585 241.971 122.585ZM292.571 107.985L279.071 137.085H284.771L287.771 130.385H302.771L305.771 137.085H311.571L298.071 107.885H292.571V107.985ZM289.671 126.085L295.271 113.385L300.871 126.085H289.671ZM238.871 154.285C236.571 152.985 233.971 152.385 231.271 152.385C228.571 152.385 226.071 153.085 223.671 154.285C221.471 155.585 219.571 157.385 218.371 159.685C217.071 162.085 216.471 164.685 216.471 167.385C216.471 170.085 217.171 172.685 218.371 175.085C219.571 177.285 221.471 179.185 223.671 180.485C225.971 181.785 228.571 182.385 231.271 182.385C233.971 182.385 236.471 181.685 238.871 180.485C241.071 179.185 242.871 177.385 244.171 175.085C245.471 172.685 246.071 170.085 246.071 167.385C246.071 164.685 245.371 162.085 244.171 159.685C242.871 157.385 241.071 155.585 238.871 154.285ZM239.671 172.585C238.871 174.085 237.671 175.385 236.271 176.285C234.771 177.185 233.071 177.585 231.371 177.585C229.671 177.585 227.971 177.085 226.471 176.285C224.971 175.385 223.771 174.185 223.071 172.585C222.271 170.985 221.771 169.185 221.771 167.285C221.771 165.385 222.171 163.685 223.071 161.985C223.871 160.485 225.071 159.185 226.471 158.285C227.971 157.385 229.671 156.985 231.371 156.985C233.071 156.985 234.771 157.485 236.271 158.285C237.771 159.185 238.971 160.385 239.671 161.985C240.471 163.585 240.971 165.385 240.971 167.285C240.971 169.185 240.471 170.985 239.671 172.585ZM409.671 152.785V157.385H418.771V181.985H423.871V157.385H432.971V152.785H409.671ZM401.571 172.485L386.471 152.785H382.271V181.985H387.371V162.285L402.471 181.985H406.671V152.785H401.571V172.485ZM275.371 152.785L266.871 168.285L258.171 152.785H251.871V181.985H257.271V161.785L266.771 178.585L276.471 161.485V181.885H281.871V152.685H275.371V152.785ZM302.971 153.985C301.071 153.085 298.871 152.685 296.771 152.785H287.671V181.985H292.771V173.585H296.771C298.871 173.585 301.071 173.185 302.971 172.385C304.671 171.585 306.071 170.385 307.071 168.785C307.971 167.085 308.471 165.185 308.471 163.285C308.471 161.385 307.971 159.485 307.071 157.785C306.071 156.085 304.671 154.785 302.971 153.985ZM301.571 167.485C300.471 168.485 298.771 168.985 296.471 168.985H292.671V157.385H296.471C298.671 157.385 300.371 157.885 301.571 158.885C302.671 159.885 303.271 161.285 303.271 163.185C303.371 164.985 302.771 166.485 301.571 167.485ZM269.471 130.385L272.471 137.085H278.271L264.771 107.885H259.271L245.871 137.085H251.571L254.571 130.385H269.471ZM262.071 113.385L267.671 126.085H256.471L262.071 113.385ZM318.271 152.785H313.171V181.985H332.571V177.385H318.271V152.785ZM336.771 181.885H341.871V152.685H336.771V181.885ZM131.771 214.785C131.871 221.785 131.971 226.885 132.071 229.385C132.171 229.685 132.171 230.085 132.071 230.385C132.071 230.785 132.071 231.085 132.071 231.085C132.071 232.485 132.271 233.885 132.671 235.185C133.071 233.885 133.271 232.485 133.271 231.085C133.271 230.585 133.471 223.285 133.771 211.585C133.671 211.685 133.571 211.785 133.571 211.885C132.871 212.785 132.271 213.785 131.771 214.785ZM110.971 68.7851C112.571 67.0851 114.071 65.0851 115.171 62.9851C114.371 64.7851 111.271 71.5851 114.271 72.1851C117.571 72.7851 121.271 71.7851 127.971 63.2851C127.771 52.3851 127.571 42.8851 127.471 35.6851H123.871C123.671 35.6851 123.571 35.6851 123.371 35.6851C121.371 35.6851 118.071 35.4851 115.871 32.1851C113.471 28.5851 113.371 24.8851 113.271 22.1851C113.171 18.2851 112.171 11.1851 107.271 7.18512C103.871 4.48512 94.6712 2.38512 86.1712 5.78512C83.3712 6.88512 77.7712 9.78513 72.2712 12.4851C67.2712 14.9851 60.8712 18.0851 58.8712 18.0851C62.1712 16.5851 66.5712 14.3851 71.3712 11.6851C76.8712 8.68512 82.6712 5.48512 85.5712 4.28512C91.3712 1.98512 102.471 1.28513 108.171 5.88513C113.571 10.2851 114.671 17.8851 114.771 21.9851C114.871 24.6851 114.971 27.9851 117.071 31.2851C118.971 34.0851 121.971 34.0851 123.771 34.0851H124.171H127.371C127.371 33.1851 127.371 32.3851 127.371 31.4851C124.171 31.6851 119.571 31.8851 117.571 27.5851C115.171 22.3851 117.771 9.08513 109.771 3.48513C101.771 -2.11487 88.9712 -0.714871 77.5712 5.88513C66.2712 12.3851 51.2712 20.8851 32.7712 28.2851C14.2712 35.6851 2.77118 38.6851 0.571176 38.9851C-1.52882 39.3851 2.27117 40.7851 10.1712 40.9851C18.0712 41.1851 24.6712 40.5851 24.6712 40.5851L82.6712 14.1851C82.6712 14.1851 32.6712 39.0851 28.4712 41.7851C24.2712 44.4851 20.8712 45.3851 21.1712 47.8851C21.4712 50.3851 24.6712 50.0851 33.4712 49.8851C42.2712 49.6851 44.1712 48.8851 47.1712 47.9851C50.1712 47.0851 82.6712 32.0851 82.6712 32.0851C82.6712 32.0851 47.8712 49.3851 42.8712 53.3851C37.8712 57.3851 43.2712 58.6851 46.6712 58.7851C50.1712 58.8851 59.4712 58.3851 64.6712 55.7851C69.8712 53.1851 86.0712 42.7851 86.0712 42.7851C86.0712 42.7851 70.0712 54.2851 66.9712 56.8851C64.4712 58.9851 63.1712 60.7851 63.7712 62.9851C64.6712 65.7851 69.4712 65.4851 75.8712 63.1851C75.8712 63.1851 82.4712 60.8851 84.9712 58.6851C87.4712 56.3851 94.4712 50.1851 94.4712 50.1851C94.4712 50.1851 86.1712 58.7851 84.0712 62.4851C82.0712 66.1851 81.6712 67.0851 82.6712 69.1851C84.0712 72.1851 94.6712 69.0851 97.6712 65.8851C99.8712 63.3851 101.971 60.7851 103.871 57.9851C103.871 57.9851 100.671 63.1851 99.9712 66.1851C99.2712 69.1851 98.4712 71.5851 101.371 71.8851C104.571 72.3851 107.571 72.4851 110.971 68.7851ZM130.771 136.885C131.071 136.685 131.371 136.485 131.671 136.285C132.271 135.885 132.771 135.585 133.171 135.185C133.971 134.685 134.771 134.085 135.571 133.585C135.671 127.885 135.871 122.085 135.971 116.385C134.371 115.685 132.671 114.985 130.871 114.285C130.771 114.285 130.671 114.185 130.571 114.185C130.371 114.085 130.271 114.085 130.071 113.985C128.871 113.585 127.771 113.085 126.471 112.685C124.971 112.085 123.471 111.585 121.971 110.985C111.971 116.285 109.971 118.785 109.971 123.685C109.971 130.585 115.871 133.685 126.071 140.185C127.671 138.985 129.271 137.885 130.771 136.885ZM118.471 124.585C118.471 124.585 117.771 120.185 129.071 115.085C129.371 114.985 129.671 114.785 129.971 114.685C130.071 121.585 130.171 128.485 130.371 135.385C124.771 131.585 118.471 127.985 118.471 124.585ZM135.571 209.485C135.071 210.085 134.571 210.685 134.071 211.185C136.971 215.085 136.771 218.885 135.171 223.785C136.671 222.085 139.671 217.785 137.171 212.185C136.671 211.285 136.171 210.385 135.571 209.485ZM130.971 168.485C132.071 169.585 133.371 170.885 134.671 172.185C135.471 172.985 136.271 173.785 137.171 174.685C137.271 174.785 137.471 174.885 137.671 175.085C144.471 169.185 150.671 163.585 150.671 156.585C150.671 151.085 145.371 146.085 140.071 142.085C139.571 142.385 139.071 142.685 138.571 143.085C137.371 143.885 136.271 144.585 135.271 145.285C135.271 145.285 135.171 145.285 135.171 145.385C134.971 145.585 134.671 145.685 134.471 145.885C133.071 146.885 131.771 147.785 130.571 148.685C130.771 155.385 130.871 162.085 130.971 168.485ZM135.271 146.385C141.871 151.185 144.471 154.285 144.471 157.685C144.471 161.185 140.771 165.285 134.771 171.285C134.871 163.285 135.071 154.985 135.271 146.385ZM171.771 50.2851C171.771 50.2851 178.771 56.4851 181.271 58.7851C183.771 61.0851 190.371 63.2851 190.371 63.2851C196.771 65.5851 201.571 65.8851 202.471 63.0851C203.171 60.8851 201.771 58.9851 199.271 56.9851C196.171 54.3851 180.171 42.8851 180.171 42.8851C180.171 42.8851 196.371 53.2851 201.571 55.8851C206.771 58.4851 216.071 58.9851 219.571 58.8851C223.071 58.7851 228.371 57.4851 223.371 53.4851C218.371 49.4851 183.571 32.1851 183.571 32.1851C183.571 32.1851 215.971 47.2851 219.071 48.0851C222.071 48.9851 223.971 49.6851 232.771 49.9851C241.571 50.1851 244.671 50.4851 245.071 47.9851C245.471 45.5851 241.971 44.6851 237.771 41.8851C233.571 39.1851 183.571 14.2851 183.571 14.2851L241.571 40.6851C241.571 40.6851 248.171 41.2851 256.071 41.0851C263.971 40.8851 267.771 39.4851 265.671 39.0851C263.571 38.6851 251.971 35.7851 233.471 28.3851C214.971 20.9851 199.971 12.5851 188.671 5.98513C177.371 -0.514873 164.471 -2.01487 156.471 3.58513C148.471 9.18513 151.071 22.3851 148.671 27.6851C146.671 31.9851 142.071 31.7851 138.871 31.5851C138.871 32.3851 138.871 33.2851 138.771 34.1851H142.071H142.471C144.271 34.1851 147.271 34.1851 149.171 31.3851C151.271 28.1851 151.371 24.7851 151.471 22.0851C151.571 17.9851 152.671 10.3851 158.071 5.98513C163.771 1.38513 174.871 2.08513 180.671 4.38513C183.571 5.48513 189.371 8.68512 194.871 11.7851C199.671 14.4851 204.071 16.6851 207.371 18.1851C205.271 18.1851 198.971 15.0851 193.971 12.5851C188.571 9.78513 182.971 6.98513 180.071 5.88513C171.571 2.48513 162.371 4.58512 158.971 7.28512C153.971 11.2851 153.071 18.3851 152.971 22.2851C152.871 24.9851 152.771 28.7851 150.371 32.2851C148.271 35.5851 144.971 35.7851 142.871 35.7851C142.671 35.7851 142.571 35.7851 142.371 35.7851H138.771C138.571 42.9851 138.371 52.3851 138.171 63.0851C144.971 71.7851 148.871 72.8851 152.071 72.1851C155.071 71.5851 152.071 64.7851 151.171 62.9851C152.371 65.0851 153.771 66.9851 155.371 68.7851C158.671 72.4851 161.771 72.3851 164.771 71.9851C167.771 71.5851 166.871 69.2851 166.171 66.2851C165.471 63.2851 162.271 58.0851 162.271 58.0851C164.171 60.7851 166.271 63.4851 168.471 65.9851C171.471 69.1851 182.071 72.3851 183.471 69.2851C184.371 67.2851 184.071 66.2851 182.071 62.5851C180.171 58.8851 171.771 50.2851 171.771 50.2851ZM133.271 19.6851C134.871 19.6851 136.471 19.1851 137.771 18.2851C139.071 17.3851 140.171 16.0851 140.771 14.6851C141.371 13.1851 141.571 11.5851 141.271 9.98513C140.971 8.38513 140.171 6.98512 139.071 5.78512C137.971 4.68512 136.471 3.88513 134.871 3.58513C133.271 3.28513 131.671 3.38513 130.171 4.08513C128.671 4.68513 127.371 5.78513 126.571 7.08513C125.671 8.38513 125.171 9.98512 125.171 11.5851C125.171 12.6851 125.371 13.6851 125.771 14.6851C126.171 15.6851 126.771 16.5851 127.571 17.2851C128.371 18.0851 129.171 18.6851 130.171 19.0851C131.071 19.4851 132.171 19.6851 133.271 19.6851ZM159.871 80.4851C159.871 80.4851 159.671 74.8851 150.571 74.2851C141.271 73.6851 140.871 77.6851 141.071 79.1851C141.771 79.1851 142.371 79.3851 142.371 79.5851C142.371 79.7851 141.871 79.9851 141.271 79.9851C141.771 81.4851 143.171 83.2851 147.171 85.2851C150.471 86.8851 152.071 86.7851 153.971 86.4851C153.971 86.4851 156.171 87.7851 156.171 89.8851C156.171 91.8851 152.671 95.7851 136.271 103.985C137.271 59.7851 138.171 20.9851 138.171 20.9851H139.171C139.571 20.9851 139.971 20.7851 140.271 20.4851C140.571 20.1851 140.771 19.7851 140.771 19.3851V18.8851C140.771 18.6851 140.771 18.4851 140.671 18.2851C140.571 18.0851 140.471 17.8851 140.271 17.7851C139.371 18.7851 138.371 19.5851 137.171 20.1851C135.971 20.7851 134.671 20.9851 133.371 20.9851C132.071 20.9851 130.771 20.6851 129.571 20.1851C128.371 19.6851 127.271 18.7851 126.471 17.7851C126.271 17.9851 126.171 18.0851 126.071 18.2851C125.971 18.4851 125.971 18.6851 125.971 18.8851V19.3851C125.971 19.7851 126.171 20.1851 126.471 20.4851C126.771 20.7851 127.171 20.9851 127.571 20.9851H128.571C128.571 20.9851 129.271 58.6851 129.971 102.085C131.371 102.785 132.771 103.485 134.371 104.285C134.571 104.385 134.871 104.485 135.071 104.585C138.771 106.385 141.871 107.885 144.471 109.285C153.271 105.885 161.871 101.985 164.471 96.4851C169.071 86.2851 159.871 80.4851 159.871 80.4851ZM147.671 78.1851C146.671 78.1851 145.871 77.6851 145.871 77.0851C145.871 76.4851 146.671 75.9851 147.671 75.9851C148.671 75.9851 149.471 76.4851 149.471 77.0851C149.471 77.6851 148.671 78.1851 147.671 78.1851ZM131.771 204.785C132.571 203.785 133.271 202.785 134.071 201.885C134.171 196.185 134.371 189.785 134.471 182.885C133.471 181.885 132.371 180.885 131.171 179.785C130.771 179.485 130.471 179.085 130.071 178.785C129.571 178.285 129.071 177.885 128.571 177.485C125.771 180.085 120.271 185.885 120.271 190.885C120.271 196.785 125.971 202.785 130.271 207.085C130.671 206.185 131.171 205.485 131.771 204.785ZM131.171 180.985C131.371 189.485 131.471 197.285 131.571 203.985C128.271 199.585 124.771 195.085 124.771 191.985C124.771 189.085 126.471 185.785 131.171 180.985ZM133.471 105.585C113.971 96.1851 109.971 91.8851 109.971 89.7851C109.971 87.6851 112.171 86.3851 112.171 86.3851C114.071 86.7851 115.671 86.7851 118.971 85.1851C122.971 83.2851 124.371 81.3851 124.871 79.8851C124.271 79.8851 123.771 79.6851 123.771 79.4851C123.771 79.2851 124.371 79.0851 125.071 79.0851V78.9851C125.171 77.4851 124.671 73.5851 115.471 74.1851C106.371 74.7851 106.171 80.3851 106.171 80.3851C106.171 80.3851 96.9712 86.2851 101.771 96.2851C105.971 105.185 125.671 109.885 137.071 114.985C148.371 120.085 147.671 124.485 147.671 124.485C147.671 128.285 140.071 132.285 134.071 136.485C128.071 140.685 115.371 147.985 115.371 156.585C115.371 164.485 123.271 170.585 130.971 177.385C138.771 184.185 141.271 188.285 141.271 192.085C141.271 197.285 132.671 204.285 128.271 212.985C123.871 221.685 132.571 235.185 129.871 228.085C127.071 220.985 128.571 215.985 132.171 210.985C136.571 204.885 145.971 198.885 145.971 190.785C145.971 183.985 136.071 175.985 136.071 175.985C127.271 167.185 121.671 162.185 121.671 157.785C121.671 153.385 125.871 149.485 137.671 141.785C149.371 134.185 156.271 131.185 156.271 123.785C156.271 117.285 152.971 114.985 133.471 105.585ZM118.471 76.0851C119.471 76.0851 120.271 76.5851 120.271 77.1851C120.271 77.7851 119.471 78.2851 118.471 78.2851C117.471 78.2851 116.671 77.7851 116.671 77.1851C116.671 76.5851 117.471 76.0851 118.471 76.0851ZM359.271 152.785L345.771 181.985H351.471L354.471 175.285H369.471L372.471 181.985H378.271L364.771 152.785H359.271ZM356.371 170.985L361.971 158.285L367.571 170.985H356.371Z" fill="#0D405F"/>
</svg>
