<svg width="13" height="13" viewBox="0 0 13 13" fill="none" xmlns="http://www.w3.org/2000/svg"
    class="size-6">
    <path
        d="M3.0318 8.08621C3.0318 8.78366 2.46811 9.34735 1.77066 9.34735C1.07321 9.34735 0.509521 8.78366 0.509521 8.08621C0.509521 7.38876 1.07321 6.82507 1.77066 6.82507H3.0318V8.08621Z"
        fill="#E01E5A"></path>
    <path
        d="M3.66235 8.08621C3.66235 7.38876 4.22604 6.82507 4.92349 6.82507C5.62094 6.82507 6.18463 7.38876 6.18463 8.08621V11.2391C6.18463 11.9365 5.62094 12.5002 4.92349 12.5002C4.22604 12.5002 3.66235 11.9365 3.66235 11.2391L3.66235 8.08621Z"
        fill="#E01E5A"></path>
    <path
        d="M4.92374 3.02253C4.22629 3.02253 3.6626 2.45883 3.6626 1.76139C3.6626 1.06394 4.22629 0.500244 4.92374 0.500244C5.62119 0.500244 6.18488 1.06394 6.18488 1.76139V3.02253H4.92374Z"
        fill="#36C5F0"></path>
    <path
        d="M4.92355 3.66284C5.621 3.66284 6.18469 4.22653 6.18469 4.92398C6.18469 5.62143 5.621 6.18512 4.92355 6.18512H1.76114C1.06369 6.18512 0.5 5.62143 0.5 4.92398C0.5 4.22653 1.06369 3.66284 1.76114 3.66284L4.92355 3.66284Z"
        fill="#36C5F0"></path>
    <path
        d="M9.97852 4.92386C9.97852 4.22641 10.5422 3.66272 11.2397 3.66272C11.9371 3.66272 12.5008 4.22641 12.5008 4.92386C12.5008 5.62131 11.9371 6.185 11.2397 6.185H9.97852V4.92386Z"
        fill="#2EB67D"></path>
    <path
        d="M9.34723 4.92379C9.34723 5.62124 8.78354 6.18493 8.08609 6.18493C7.38864 6.18493 6.82495 5.62124 6.82495 4.92379V1.76139C6.82495 1.06394 7.38864 0.500244 8.08609 0.500244C8.78354 0.500244 9.34723 1.06394 9.34723 1.76139V4.92379Z"
        fill="#2EB67D"></path>
    <path
        d="M8.08609 9.97803C8.78354 9.97803 9.34723 10.5417 9.34723 11.2392C9.34723 11.9366 8.78354 12.5003 8.08609 12.5003C7.38864 12.5003 6.82495 11.9366 6.82495 11.2392V9.97803H8.08609Z"
        fill="#ECB22E"></path>
    <path
        d="M8.08609 9.34735C7.38864 9.34735 6.82495 8.78366 6.82495 8.08621C6.82495 7.38876 7.38864 6.82507 8.08609 6.82507H11.2485C11.9459 6.82507 12.5096 7.38876 12.5096 8.08621C12.5096 8.78366 11.9459 9.34735 11.2485 9.34735H8.08609Z"
        fill="#ECB22E"></path>
</svg>